<svg viewBox="0 0 24 24" fill="#e74c3c" xmlns="http://www.w3.org/2000/svg">
  <path d="M3.5501 3.84998L5.4001 7.64998H8.6501L6.8001 3.84998H9.0251L10.8751 7.64998H14.1251L12.2751 3.84998H14.5001L16.3501 7.64998H19.6001L17.7501 3.84998H20.4501C20.9168 3.84998 21.3168 4.01664 21.6501 4.34998C21.9834 4.68331 22.1501 5.08331 22.1501 5.54998V18.45C22.1501 18.9 21.9834 19.2958 21.6501 19.6375C21.3168 19.9791 20.9168 20.15 20.4501 20.15H3.5501C3.1001 20.15 2.70426 19.9833 2.3626 19.65C2.02093 19.3166 1.8501 18.9166 1.8501 18.45V5.54998C1.8501 5.08331 2.02093 4.68331 2.3626 4.34998C2.70426 4.01664 3.1001 3.84998 3.5501 3.84998ZM3.5501 9.34998V18.45H20.4501V9.34998H3.5501Z"/>
</svg>
