<svg viewBox="0 0 24 24" fill="#3498db" xmlns="http://www.w3.org/2000/svg">
  <path d="M6.6751 17.125H17.3501C17.5334 17.125 17.6668 17.05 17.7501 16.9C17.8334 16.75 17.8168 16.6 17.7001 16.45L14.8001 12.55C14.7001 12.4333 14.5834 12.375 14.4501 12.375C14.3168 12.375 14.2001 12.4333 14.1001 12.55L11.1501 16.35L9.1751 13.65C9.0751 13.5333 8.95843 13.475 8.8251 13.475C8.69176 13.475 8.5751 13.5333 8.4751 13.65L6.3501 16.45C6.2501 16.6 6.23343 16.75 6.3001 16.9C6.36676 17.05 6.49176 17.125 6.6751 17.125ZM4.5501 21.15C4.1001 21.15 3.70426 20.9791 3.3626 20.6375C3.02093 20.2958 2.8501 19.9 2.8501 19.45V4.54998C2.8501 4.08331 3.02093 3.68331 3.3626 3.34998C3.70426 3.01664 4.1001 2.84998 4.5501 2.84998H19.4501C19.9168 2.84998 20.3168 3.01664 20.6501 3.34998C20.9834 3.68331 21.1501 4.08331 21.1501 4.54998V19.45C21.1501 19.9 20.9834 20.2958 20.6501 20.6375C20.3168 20.9791 19.9168 21.15 19.4501 21.15H4.5501ZM4.5501 19.45H19.4501V4.54998H4.5501V19.45Z"/>
</svg>
